<svg width="100" height="100" viewBox="0 0 100 100" fill="none" xmlns="http://www.w3.org/2000/svg">
<rect x="1" y="1" width="98" height="98" rx="15" stroke="black" stroke-width="2"/>
<path d="M51.26 81.65L51.2817 82.6498L51.2853 82.6497L51.26 81.65ZM39.99 79.83L40.366 78.9033L40.3544 78.8988L39.99 79.83ZM31.94 74.51L32.6691 73.8256L31.94 74.51ZM27.11 66.6L26.1673 66.9336L26.1689 66.9382L27.11 66.6ZM26.97 48.12L27.9202 48.4318L27.9216 48.4274L26.97 48.12ZM31.38 39.72L30.5868 39.111L30.5852 39.1131L31.38 39.72ZM38.94 33.35L39.4141 34.2305L39.4189 34.2279L38.94 33.35ZM49.86 30.48L49.9155 31.4785L49.9161 31.4784L49.86 30.48ZM60.71 31.95L60.3435 32.8804L60.3482 32.8823L60.71 31.95ZM68.48 37.06L67.7499 37.7435L67.7577 37.7516L68.48 37.06ZM73.17 44.48L72.233 44.8294L72.2366 44.839L72.2404 44.8486L73.17 44.48ZM64.28 70.03L64.529 70.9985L64.5384 70.9961L64.5476 70.9935L64.28 70.03ZM60.08 70.38L59.9062 71.3648L59.9141 71.3662L59.922 71.3674L60.08 70.38ZM56.51 68.77L55.783 69.4566L55.7928 69.467L55.8029 69.4771L56.51 68.77ZM54.97 65.83L53.9826 65.988L53.9863 66.0111L53.991 66.034L54.97 65.83ZM54.9 62.05L53.9094 61.9134L53.9071 61.9302L53.9053 61.9471L54.9 62.05ZM55.53 57.99L56.5155 58.1599L54.5834 57.6675L55.53 57.99ZM50.7 67.23L51.4334 67.9098L51.4334 67.9098L50.7 67.23ZM39.57 67.79L40.2879 67.0939L40.2879 67.0939L39.57 67.79ZM38.38 53.09L37.4238 52.7973L37.4238 52.7973L38.38 53.09ZM41.53 47L42.3149 47.6196L42.3149 47.6196L41.53 47ZM46.71 42.8L47.1572 43.6944L47.1572 43.6944L46.71 42.8ZM57.49 41.47L57.5895 40.475L57.5895 40.475L57.49 41.47ZM61.34 42.17L62.3332 42.2868L62.4331 41.4376L61.6096 41.207L61.34 42.17ZM60.71 47L59.7201 46.8586L59.7181 46.8725L59.7165 46.8865L60.71 47ZM59.59 56.17L58.5988 56.0378L58.5966 56.0541L58.595 56.0705L59.59 56.17ZM59.24 60.02L58.2432 59.9403L58.2429 59.9433L59.24 60.02ZM59.17 63.59L58.1708 63.63L58.1717 63.6515L58.1735 63.673L59.17 63.59ZM59.87 66.53L58.9562 66.9361L58.9701 66.9675L58.9862 66.9979L59.87 66.53ZM61.76 68L61.5431 68.9762L61.5579 68.9795L61.5729 68.9823L61.76 68ZM64.63 67.58L64.1828 66.6856L64.1828 66.6856L64.63 67.58ZM67.15 65.27L66.3339 64.692L66.3291 64.6989L67.15 65.27ZM69.04 61.14L68.0785 60.8653L68.0785 60.8653L69.04 61.14ZM69.81 55.61L68.8103 55.5852L68.8103 55.5873L69.81 55.61ZM67.29 42.17L66.4107 42.6463L66.4135 42.6514L67.29 42.17ZM59.8 35.03L59.3913 35.9427L59.3964 35.9449L59.8 35.03ZM49.3 33.42L49.3804 34.4168L49.384 34.4165L49.3 33.42ZM41.53 35.8L42.0339 36.6638L42.0393 36.6606L41.53 35.8ZM35.79 40.98L36.5879 41.5829L36.5942 41.5744L35.79 40.98ZM32.15 48.19L33.1036 48.4911L33.1051 48.4864L32.15 48.19ZM32.57 66.39L31.6437 66.7668L31.6437 66.7668L32.57 66.39ZM37.12 73.25L36.4307 73.9746L36.4402 73.9834L37.12 73.25ZM43.63 77.17L43.9732 76.2307L43.9652 76.2278L43.9571 76.225L43.63 77.17ZM51.19 78.64L51.1543 79.6394L51.1614 79.6396L51.19 78.64ZM56.51 78.29L56.3686 77.3L56.3652 77.3005L56.51 78.29ZM62.39 76.4L61.9601 75.4971L61.9514 75.5013L61.9428 75.5056L62.39 76.4ZM67.78 72.13L68.5014 71.4375L67.7365 70.6407L67.0194 71.4807L67.78 72.13ZM69.46 73.88L70.2134 74.5375L70.8153 73.8478L70.1814 73.1875L69.46 73.88ZM61.41 79.62L61.0362 78.6925L61.0314 78.6945L61.41 79.62ZM49.65 65.2L48.8857 64.5551L48.8797 64.5622L48.8739 64.5694L49.65 65.2ZM53.01 59.39L52.0918 58.9939L52.0885 59.0016L52.0853 59.0092L53.01 59.39ZM55.46 51.76L56.4358 51.9787L56.4366 51.9752L55.46 51.76ZM56.37 43.99H57.37V43.3233L56.7546 43.0669L56.37 43.99ZM54.41 43.5L54.2778 44.4913L54.286 44.4923L54.41 43.5ZM47.69 44.9L48.3183 45.6779L48.3217 45.6752L47.69 44.9ZM44.61 48.82L43.7207 48.3626L43.7156 48.3728L44.61 48.82ZM42.79 54.14L41.8122 53.9305L41.8103 53.9395L41.8085 53.9485L42.79 54.14ZM43.21 65.34L44.1162 64.9171L44.1162 64.9171L43.21 65.34ZM51.2383 80.6502C47.0499 80.7413 43.4338 80.1483 40.366 78.9034L39.614 80.7566C42.9862 82.1251 46.8834 82.7454 51.2817 82.6498L51.2383 80.6502ZM40.3544 78.8988C37.2584 77.6873 34.704 75.9932 32.6691 73.8256L31.2109 75.1944C33.4693 77.6001 36.2816 79.4527 39.6256 80.7612L40.3544 78.8988ZM32.6691 73.8256C30.6171 71.6398 29.0787 69.1213 28.0511 66.2618L26.1689 66.9382C27.2879 70.052 28.9695 72.8069 31.2109 75.1944L32.6691 73.8256ZM28.0527 66.2664C27.019 63.3449 26.5 60.2614 26.5 57.01H24.5C24.5 60.4786 25.0544 63.7884 26.1673 66.9336L28.0527 66.2664ZM26.5 57.01C26.5 54.183 26.9709 51.3248 27.9202 48.4318L26.0198 47.8082C25.0091 50.8886 24.5 53.957 24.5 57.01H26.5ZM27.9216 48.4274C28.8662 45.5035 30.2827 42.8046 32.1748 40.3269L30.5852 39.1131C28.5573 41.7688 27.0338 44.6698 26.0184 47.8126L27.9216 48.4274ZM32.1732 40.329C34.0899 37.8328 36.4993 35.8 39.4141 34.2305L38.4659 32.4695C35.314 34.1667 32.6834 36.3805 30.5869 39.111L32.1732 40.329ZM39.4189 34.2279C42.345 32.6318 45.8347 31.7052 49.9155 31.4785L49.8045 29.4815C45.4853 29.7215 41.695 30.7082 38.4611 32.4721L39.4189 34.2279ZM49.9161 31.4784C53.9612 31.2512 57.4276 31.7317 60.3435 32.8804L61.0765 31.0196C57.8324 29.7416 54.0655 29.2422 49.8039 29.4816L49.9161 31.4784ZM60.3482 32.8823C63.3514 34.0477 65.8106 35.6718 67.75 37.7434L69.21 36.3766C67.0428 34.0616 64.3219 32.279 61.0718 31.0177L60.3482 32.8823ZM67.7577 37.7516C69.7668 39.85 71.2555 42.2078 72.233 44.8294L74.107 44.1306C73.0312 41.2455 71.3932 38.6567 69.2023 36.3684L67.7577 37.7516ZM72.2404 44.8486C73.2691 47.4427 73.78 50.0712 73.78 52.74H75.78C75.78 49.8088 75.2176 46.9306 74.0996 44.1114L72.2404 44.8486ZM73.78 52.74C73.78 56.3393 73.2546 59.2199 72.2584 61.4289L74.0816 62.2511C75.232 59.7001 75.78 56.5141 75.78 52.74H73.78ZM72.2584 61.4289C71.2316 63.7057 69.985 65.4116 68.5443 66.5981L69.8157 68.1419C71.5484 66.715 72.9617 64.7343 74.0816 62.2511L72.2584 61.4289ZM68.5443 66.5981C67.0465 67.8315 65.5357 68.6433 64.0124 69.0665L64.5476 70.9935C66.3843 70.4833 68.1402 69.5218 69.8157 68.1419L68.5443 66.5981ZM64.031 69.0615C62.478 69.4608 61.2242 69.5504 60.238 69.3926L59.922 71.3674C61.2691 71.583 62.8153 71.4392 64.529 70.9985L64.031 69.0615ZM60.2538 69.3952C58.7847 69.136 57.8147 68.6604 57.2171 68.0629L55.8029 69.4771C56.792 70.4662 58.202 71.064 59.9062 71.3648L60.2538 69.3952ZM57.237 68.0834C56.5694 67.3765 56.1442 66.5631 55.949 65.626L53.991 66.034C54.2625 67.3369 54.864 68.4835 55.783 69.4566L57.237 68.0834ZM55.9574 65.672C55.7865 64.6035 55.7624 63.4322 55.8947 62.1529L53.9053 61.9471C53.7576 63.3745 53.7802 64.7232 53.9826 65.988L55.9574 65.672ZM55.8906 62.1866C56.0757 60.8445 56.284 59.5022 56.5155 58.1599L54.5445 57.8201C54.3093 59.1844 54.0976 60.5489 53.9094 61.9134L55.8906 62.1866ZM54.5834 57.6675C53.154 61.8636 51.5994 64.7885 49.9666 66.5502L51.4334 67.9098C53.3473 65.8448 55.0127 62.6098 56.4766 58.3125L54.5834 57.6675ZM49.9666 66.5502C48.3435 68.3014 46.6124 69.1 44.75 69.1V71.1C47.2743 71.1 49.5098 69.9853 51.4334 67.9098L49.9666 66.5502ZM44.75 69.1C43.0876 69.1 41.6126 68.4599 40.2879 67.0939L38.8521 68.4861C40.5141 70.2001 42.4924 71.1 44.75 71.1V69.1ZM40.2879 67.0939C39.0569 65.8244 38.33 63.6636 38.33 60.37H36.33C36.33 63.8897 37.0964 66.6756 38.8521 68.4861L40.2879 67.0939ZM38.33 60.37C38.33 57.8953 38.6673 55.5678 39.3362 53.3827L37.4238 52.7973C36.6927 55.1855 36.33 57.7114 36.33 60.37H38.33ZM39.3362 53.3827C40.002 51.2077 40.9962 49.29 42.3149 47.6196L40.7451 46.3804C39.2638 48.2567 38.158 50.399 37.4238 52.7973L39.3362 53.3827ZM42.3149 47.6196C43.6224 45.9635 45.2331 44.6565 47.1572 43.6944L46.2628 41.9056C44.0803 42.9968 42.2376 44.4898 40.7451 46.3804L42.3149 47.6196ZM47.1572 43.6944C49.0512 42.7474 51.2506 42.26 53.78 42.26V40.26C50.9894 40.26 48.4755 40.7992 46.2628 41.9056L47.1572 43.6944ZM53.78 42.26C54.8118 42.26 56.0141 42.3274 57.3905 42.465L57.5895 40.475C56.166 40.3326 54.8949 40.26 53.78 40.26V42.26ZM57.3905 42.465C58.7419 42.6002 59.9674 42.8241 61.0704 43.133L61.6096 41.207C60.3792 40.8625 59.0381 40.6198 57.5895 40.475L57.3905 42.465ZM60.3469 42.0532C60.1612 43.6314 59.9523 45.2332 59.7201 46.8586L61.7 47.1414C61.9344 45.5002 62.1455 43.882 62.3332 42.2868L60.3469 42.0532ZM59.7165 46.8865C59.53 48.5177 59.3436 50.1021 59.1573 51.6397L61.1427 51.8803C61.3297 50.3379 61.5166 48.749 61.7035 47.1135L59.7165 46.8865ZM59.1573 51.6397C58.971 53.1761 58.7849 54.6421 58.5988 56.0378L60.5812 56.3022C60.7685 54.8979 60.9556 53.4239 61.1427 51.8803L59.1573 51.6397ZM58.595 56.0705C58.4544 57.4758 58.3371 58.7658 58.2432 59.9403L60.2368 60.0997C60.3295 58.9408 60.4456 57.6642 60.585 56.2695L58.595 56.0705ZM58.2429 59.9433C58.1468 61.1938 58.1225 62.4228 58.1708 63.63L60.1692 63.55C60.1242 62.4239 60.1466 61.2728 60.2371 60.0967L58.2429 59.9433ZM58.1735 63.673C58.2741 64.8806 58.5286 65.9739 58.9562 66.9361L60.7838 66.1239C60.4648 65.4061 60.2526 64.5394 60.1665 63.507L58.1735 63.673ZM58.9862 66.9979C59.5365 68.0374 60.4032 68.7229 61.5431 68.9762L61.9769 67.0238C61.4368 66.9038 61.0435 66.6093 60.7538 66.0621L58.9862 66.9979ZM61.5729 68.9823C62.7786 69.212 63.9575 69.0343 65.0772 68.4744L64.1828 66.6856C63.4359 67.059 62.7014 67.1613 61.9471 67.0177L61.5729 68.9823ZM65.0772 68.4744C66.1935 67.9163 67.1524 67.0176 67.9709 65.8411L66.3291 64.6989C65.6542 65.6691 64.9332 66.3104 64.1828 66.6856L65.0772 68.4744ZM67.966 65.848C68.8381 64.6169 69.5109 63.1318 70.0015 61.4147L68.0785 60.8653C67.6357 62.4148 67.0486 63.6831 66.334 64.692L67.966 65.848ZM70.0015 61.4147C70.4959 59.6844 70.7615 57.7542 70.8097 55.6327L68.8103 55.5873C68.7651 57.5724 68.5174 59.3289 68.0785 60.8653L70.0015 61.4147ZM70.8097 55.6348C70.9521 49.8924 70.1035 45.215 68.1665 41.6886L66.4135 42.6514C68.1165 45.7517 68.9479 50.0342 68.8103 55.5852L70.8097 55.6348ZM68.1693 41.6937C66.2551 38.1598 63.6006 35.6137 60.2036 34.1151L59.3964 35.9449C62.3461 37.2463 64.6849 39.4602 66.4107 42.6463L68.1693 41.6937ZM60.2087 34.1173C56.9077 32.6393 53.2349 32.0846 49.216 32.4235L49.384 34.4165C53.1117 34.1021 56.439 34.6207 59.3913 35.9427L60.2087 34.1173ZM49.2196 32.4232C46.189 32.6676 43.4499 33.5017 41.0207 34.9394L42.0393 36.6606C44.1835 35.3916 46.6243 34.639 49.3804 34.4168L49.2196 32.4232ZM41.0261 34.9362C38.6653 36.3134 36.6508 38.133 34.9858 40.3856L36.5942 41.5744C38.1025 39.5337 39.9147 37.9 42.0339 36.6638L41.0261 34.9362ZM34.9921 40.3772C33.3306 42.5763 32.0666 45.085 31.1949 47.8936L33.1051 48.4864C33.9134 45.8817 35.0761 43.5837 36.5879 41.5828L34.9921 40.3772ZM31.1964 47.8889C30.324 50.6514 29.89 53.5534 29.89 56.59H31.89C31.89 53.7466 32.296 51.0486 33.1036 48.4911L31.1964 47.8889ZM29.89 56.59C29.89 60.4655 30.4638 63.8661 31.6437 66.7668L33.4963 66.0132C32.4362 63.4072 31.89 60.2745 31.89 56.59H29.89ZM31.6437 66.7668C32.8104 69.635 34.4025 72.0452 36.4308 73.9746L37.8092 72.5254C36.0109 70.8148 34.5696 68.6517 33.4963 66.0132L31.6437 66.7668ZM36.4402 73.9834C38.4535 75.8494 40.7432 77.2289 43.3029 78.115L43.9571 76.225C41.6635 75.4311 39.6131 74.1973 37.7998 72.5166L36.4402 73.9834ZM43.2868 78.1093C45.8134 79.0324 48.4373 79.5423 51.1543 79.6394L51.2257 77.6406C48.7161 77.551 46.2999 77.0809 43.9732 76.2307L43.2868 78.1093ZM51.1614 79.6396C52.8621 79.6882 54.6942 79.5664 56.6548 79.2795L56.3652 77.3005C54.4991 77.5736 52.7845 77.6852 51.2186 77.6404L51.1614 79.6396ZM56.6514 79.2799C58.7285 78.9832 60.7913 78.3174 62.8372 77.2944L61.9428 75.5056C60.0687 76.4426 58.2115 77.0368 56.3686 77.3001L56.6514 79.2799ZM62.8199 77.3029C64.9253 76.3003 66.8304 74.7826 68.5406 72.7793L67.0194 71.4807C65.4629 73.3041 63.7747 74.633 61.9601 75.4971L62.8199 77.3029ZM67.0586 72.8225L68.7386 74.5725L70.1814 73.1875L68.5014 71.4375L67.0586 72.8225ZM68.7066 73.2225C66.569 75.6718 64.0153 77.492 61.0362 78.6925L61.7838 80.5475C65.0581 79.228 67.871 77.2215 70.2134 74.5375L68.7066 73.2225ZM61.0314 78.6945C58.0752 79.9038 54.8132 80.5597 51.2347 80.6503L51.2853 82.6497C55.0802 82.5536 58.5848 81.8562 61.7886 80.5455L61.0314 78.6945ZM45.94 68.44C47.6318 68.44 49.1245 67.4326 50.4261 65.8306L48.8739 64.5694C47.7489 65.954 46.7682 66.44 45.94 66.44V68.44ZM50.4143 65.8449C51.7585 64.2518 52.927 62.218 53.9347 59.7707L52.0853 59.0092C51.133 61.322 50.0615 63.1616 48.8857 64.5551L50.4143 65.8449ZM53.9282 59.7861C54.9812 57.3451 55.8164 54.742 56.4358 51.9787L54.4842 51.5413C53.8902 54.1914 53.0921 56.6749 52.0918 58.9939L53.9282 59.7861ZM56.4366 51.9752C57.0564 49.1622 57.37 46.4995 57.37 43.99H55.37C55.37 46.3338 55.077 48.8511 54.4834 51.5448L56.4366 51.9752ZM56.7546 43.0669C56.0941 42.7917 55.3498 42.6097 54.534 42.5077L54.286 44.4923C54.9636 44.577 55.5259 44.7216 55.9854 44.9131L56.7546 43.0669ZM54.5422 42.5088C53.789 42.4083 52.9503 42.36 52.03 42.36V44.36C52.8831 44.36 53.631 44.405 54.2778 44.4912L54.5422 42.5088ZM52.03 42.36C50.1678 42.36 48.4977 42.9519 47.0583 44.1248L48.3217 45.6752C49.4023 44.7947 50.6256 44.36 52.03 44.36V42.36ZM47.0617 44.1221C45.7225 45.2037 44.6132 46.6272 43.7207 48.3627L45.4993 49.2773C46.2868 47.7462 47.2309 46.5563 48.3183 45.6779L47.0617 44.1221ZM43.7156 48.3728C42.88 50.0439 42.2476 51.8985 41.8122 53.9305L43.7678 54.3495C44.1724 52.4615 44.7533 50.7695 45.5044 49.2672L43.7156 48.3728ZM41.8085 53.9485C41.4237 55.9205 41.23 57.8513 41.23 59.74H43.23C43.23 57.9887 43.4096 56.1862 43.7715 54.3315L41.8085 53.9485ZM41.23 59.74C41.23 62.1517 41.5653 64.1804 42.3038 65.7629L44.1162 64.9171C43.548 63.6996 43.23 61.995 43.23 59.74H41.23ZM42.3038 65.7629C43.0582 67.3794 44.2547 68.44 45.94 68.44V66.44C45.292 66.44 44.6685 66.1006 44.1162 64.9171L42.3038 65.7629Z" fill="black"/>
</svg>
