<svg width="98" height="55" viewBox="0 0 98 55" fill="none" xmlns="http://www.w3.org/2000/svg">
<path d="M72.9933 54.5001C72.9933 54.5001 62.1721 54.5001 48.8233 54.5001C35.4746 54.5001 24.1699 54.5001 24.1699 54.5001C24.1699 40.7561 35.4746 33.3472 48.8233 33.3472C62.1721 33.3472 72.9933 40.7561 72.9933 54.5001Z" fill="#D0948E"/>
<path d="M96.1901 54.1082C94.9816 53.8593 1.92689 54.1084 1.68532 54.1082C1.44375 54.108 0.699375 53.2728 0.235118 52.615C-0.0576248 51.9301 -0.0984566 51.4697 0.235118 50.3753C0.55523 49.1674 1.13416 48.7868 2.65212 48.6333L30.931 51.6196L31.6561 45.3981L5.79422 36.1904C4.41505 35.4924 3.74384 35.039 3.86062 33.4529C4.32306 32.2412 5.79422 30.9643 5.79422 30.9643C5.79422 30.9643 6.76102 29.2221 8.69462 29.72C10.6282 30.218 32.8646 43.6561 32.8646 43.6561L35.5233 39.9232L13.2869 19.5168C13.2869 19.5168 12.5081 17.9534 13.2869 16.7794C13.8463 15.8973 14.2288 15.4084 14.9788 14.5397C16.7141 12.9171 18.846 14.2906 19.0877 14.5397C19.3294 14.7887 37.4569 38.1812 37.4569 38.1812L40.8407 34.9461L27.7889 9.06479C27.1943 7.14485 27.3684 6.30488 28.2723 5.08306C29.1141 4.16572 29.8808 3.79709 31.6561 3.34105C33.6558 3.45436 34.5565 4.58515 34.7982 5.08306C35.0399 5.58097 42.5326 34.1995 42.5326 34.1995L46.8832 33.4529C46.8832 33.4529 45.433 3.83865 45.433 2.59447C45.433 1.35029 46.0754 1.05912 46.8832 0.603605C47.7993 0.0566281 48.3334 -0.143081 50.0253 0.105888C51.7172 0.354858 51.7172 2.59447 51.7172 2.59447L50.0253 33.4529L54.6176 34.1995C54.6176 34.1995 62.5937 5.33192 63.3188 4.33648C64.0439 3.34105 65.9775 3.34105 65.9775 3.34105C65.9775 3.34105 67.287 3.48583 68.3945 4.33648C69.5449 5.50292 69.4816 6.07746 69.1196 7.07393L56.5512 34.9461L60.6601 37.4347L78.7877 15.0374C79.4183 14.3094 79.853 14.0308 80.963 14.042C82.0296 14.3331 82.6015 14.568 83.38 15.784C84.1604 17.3916 83.9552 17.9293 83.38 18.7703L62.1103 39.9232L64.769 43.1584L90.1476 30.4666C91.3747 30.0792 92.0626 29.9505 93.2896 30.4666C94.1024 31.0006 94.4606 31.4717 94.7399 32.7063C94.9377 34.4592 94.7622 35.0774 94.0148 35.6926L65.4941 46.1447L65.9775 51.6196C65.9775 51.6196 92.8063 48.6333 96.1901 49.3799C99.5739 50.1264 97.3986 54.357 96.1901 54.1082Z" fill="#D0948E"/>
</svg>
